<svg width="32" height="32" viewBox="0 0 32 32" fill="none" xmlns="http://www.w3.org/2000/svg">
<path d="M8 26.6653H24M15.9947 5.336V15.3733M19.3413 19.4533L21.2667 16.8507C21.3686 16.7119 21.4299 16.5476 21.4437 16.376C21.4576 16.2045 21.4235 16.0324 21.3452 15.8791C21.2669 15.7259 21.1475 15.5974 21.0003 15.5081C20.8532 15.4187 20.6841 15.3721 20.512 15.3733H11.5653C11.3942 15.3718 11.226 15.4176 11.0792 15.5057C10.9325 15.5938 10.813 15.7208 10.7339 15.8726C10.6549 16.0244 10.6193 16.1951 10.6312 16.3658C10.6431 16.5365 10.702 16.7006 10.8013 16.84L12.6707 19.4533L15.2587 22.608C15.3465 22.7149 15.4568 22.8012 15.5818 22.8606C15.7068 22.9201 15.8434 22.9512 15.9818 22.9519C16.1202 22.9525 16.257 22.9226 16.3825 22.8643C16.5081 22.806 16.6192 22.7208 16.708 22.6147L19.3413 19.4533Z" stroke="white" stroke-width="2" stroke-linecap="round" stroke-linejoin="round"/>
</svg>
