<svg width="32" height="32" viewBox="0 0 32 32" fill="none" xmlns="http://www.w3.org/2000/svg">
<path d="M26.6663 8V24M15.337 16.0147V16.508C15.2837 20.4707 15.4623 21.8467 17.1303 21.208L17.541 20.9653L17.873 20.7347L18.5863 20.184L19.9197 19.0253L21.2837 17.8733L21.9503 17.2693L22.2477 16.968L22.597 16.4613L22.669 16.0133L22.597 15.568L22.2477 15.0627L21.9503 14.7613L21.2837 14.1573L19.9197 13.0053L18.5863 11.8453L17.873 11.2947L17.5397 11.0653L17.1303 10.8227C15.4637 10.1827 15.2823 11.56 15.337 15.5213V16.0147ZM15.337 16.0147H5.33301" stroke="white" stroke-width="2" stroke-linecap="round" stroke-linejoin="round"/>
</svg>
