<svg width="33" height="32" viewBox="0 0 33 32" fill="none" xmlns="http://www.w3.org/2000/svg">
<path d="M8.50098 5.35066H24.497M16.4943 16.68L16.9876 16.6773C20.9503 16.704 22.3263 16.5173 21.6756 14.8533L21.4303 14.444L21.1983 14.1133L20.6423 13.404L19.4743 12.0787L18.3143 10.7227L17.705 10.06L17.401 9.764L16.893 9.41733L16.4436 9.35066L15.9983 9.424L15.4956 9.77733L15.1956 10.076L14.5956 10.7467L13.453 12.1187L12.3023 13.46L11.7556 14.1773L11.529 14.5107L11.289 14.9227C10.6596 16.5933 12.0383 16.764 15.9996 16.684L16.4943 16.68ZM16.4943 16.68L16.561 26.684" stroke="white" stroke-width="2" stroke-linecap="round" stroke-linejoin="round"/>
</svg>
