<svg width="32" height="32" viewBox="0 0 32 32" fill="none" xmlns="http://www.w3.org/2000/svg">
<path d="M5.33301 8V24M16.6623 16.0133V16.508C16.7157 20.4693 16.5357 21.8467 14.869 21.2067L14.4583 20.9653L14.1263 20.7347L13.413 20.184L12.0797 19.024L10.7157 17.8733L10.049 17.2693L9.75167 16.9667L9.40234 16.4613L9.33034 16.0133L9.40234 15.568L9.75167 15.0613L10.049 14.76L10.7157 14.156L12.0797 13.004L13.413 11.844L14.1263 11.2947L14.4583 11.064L14.869 10.8213C16.5357 10.1827 16.7157 11.5587 16.6623 15.52V16.0133ZM16.6623 16.0133H26.6663" stroke="white" stroke-width="2" stroke-linecap="round" stroke-linejoin="round"/>
</svg>
