<svg width="180" height="180" viewBox="0 0 180 180" fill="none" xmlns="http://www.w3.org/2000/svg">
<g filter="url(#filter0_d_16_450)">
<path d="M18.75 90C18.75 56.415 18.75 39.615 29.1825 29.1825C39.615 18.75 56.4075 18.75 90 18.75C123.585 18.75 140.385 18.75 150.817 29.1825C161.25 39.615 161.25 56.4075 161.25 90C161.25 123.585 161.25 140.385 150.817 150.817C140.385 161.25 123.593 161.25 90 161.25C56.415 161.25 39.615 161.25 29.1825 150.817C18.75 140.385 18.75 123.593 18.75 90Z" stroke="#33CAD1" stroke-width="2.5" stroke-linecap="round" stroke-linejoin="round"/>
<g filter="url(#filter1_d_16_450)">
<path d="M86.9625 90V64.59C86.9625 57.5175 86.9625 53.9775 89.1675 52.815C91.38 51.66 94.1925 53.715 99.825 57.825L106.162 62.46C110.385 65.535 112.5 67.08 112.5 69.2175C112.5 71.355 110.385 72.9 106.162 75.9825L86.9625 90ZM86.9625 90V115.41C86.9625 122.482 86.9625 126.015 89.1675 127.185C91.38 128.34 94.1925 126.285 99.825 122.175L106.162 117.547C110.385 114.457 112.5 112.92 112.5 110.782C112.5 108.645 110.385 107.1 106.162 104.017L86.9625 90ZM86.9625 90L67.5 73.335M86.9625 90L67.5 106.665" stroke="#33CAD1" stroke-width="2.5" stroke-linecap="round" stroke-linejoin="round" shape-rendering="crispEdges"/>
</g>
</g>
<defs>
<filter id="filter0_d_16_450" x="13.5" y="17.5" width="153" height="153" filterUnits="userSpaceOnUse" color-interpolation-filters="sRGB">
<feFlood flood-opacity="0" result="BackgroundImageFix"/>
<feColorMatrix in="SourceAlpha" type="matrix" values="0 0 0 0 0 0 0 0 0 0 0 0 0 0 0 0 0 0 127 0" result="hardAlpha"/>
<feOffset dy="4"/>
<feGaussianBlur stdDeviation="2"/>
<feComposite in2="hardAlpha" operator="out"/>
<feColorMatrix type="matrix" values="0 0 0 0 0 0 0 0 0 0.588235 0 0 0 0 1 0 0 0 0.25 0"/>
<feBlend mode="normal" in2="BackgroundImageFix" result="effect1_dropShadow_16_450"/>
<feBlend mode="normal" in="SourceGraphic" in2="effect1_dropShadow_16_450" result="shape"/>
</filter>
<filter id="filter1_d_16_450" x="62.25" y="51.2451" width="55.5" height="85.5097" filterUnits="userSpaceOnUse" color-interpolation-filters="sRGB">
<feFlood flood-opacity="0" result="BackgroundImageFix"/>
<feColorMatrix in="SourceAlpha" type="matrix" values="0 0 0 0 0 0 0 0 0 0 0 0 0 0 0 0 0 0 127 0" result="hardAlpha"/>
<feOffset dy="4"/>
<feGaussianBlur stdDeviation="2"/>
<feComposite in2="hardAlpha" operator="out"/>
<feColorMatrix type="matrix" values="0 0 0 0 0 0 0 0 0 0.588235 0 0 0 0 1 0 0 0 0.25 0"/>
<feBlend mode="normal" in2="BackgroundImageFix" result="effect1_dropShadow_16_450"/>
<feBlend mode="normal" in="SourceGraphic" in2="effect1_dropShadow_16_450" result="shape"/>
</filter>
</defs>
</svg>
