<svg width="33" height="32" viewBox="0 0 33 32" fill="none" xmlns="http://www.w3.org/2000/svg">
<path d="M7.16699 13.3333C9.37613 13.3333 11.167 11.5425 11.167 9.33331C11.167 7.12417 9.37613 5.33331 7.16699 5.33331C4.95785 5.33331 3.16699 7.12417 3.16699 9.33331C3.16699 11.5425 4.95785 13.3333 7.16699 13.3333Z" stroke="white" stroke-width="2" stroke-linecap="round" stroke-linejoin="round"/>
<path d="M11.1673 29.3333C14.1128 29.3333 16.5007 26.9455 16.5007 24C16.5007 21.0545 14.1128 18.6667 11.1673 18.6667C8.2218 18.6667 5.83398 21.0545 5.83398 24C5.83398 26.9455 8.2218 29.3333 11.1673 29.3333Z" stroke="white" stroke-width="2" stroke-linecap="round" stroke-linejoin="round"/>
<path d="M23.1667 16C26.8486 16 29.8333 13.0152 29.8333 9.33332C29.8333 5.65142 26.8486 2.66666 23.1667 2.66666C19.4848 2.66666 16.5 5.65142 16.5 9.33332C16.5 13.0152 19.4848 16 23.1667 16Z" stroke="white" stroke-width="2" stroke-linecap="round" stroke-linejoin="round"/>
</svg>
