<svg width="26" height="24" viewBox="0 0 26 24" fill="none" xmlns="http://www.w3.org/2000/svg">
<path d="M22.6422 3L14.0707 11.5M10.2629 11.085C7.60573 12.037 5.48109 11.874 3.35645 11.088C3.89216 17.531 7.11073 20.008 11.4018 21C11.4018 21 14.6343 18.866 15.1004 13.807C15.1507 13.259 15.1754 12.986 15.0543 12.677C14.9322 12.368 14.6922 12.147 14.2132 11.704C13.4247 10.976 13.0314 10.612 12.5632 10.52C12.095 10.43 11.4843 10.648 10.2629 11.085Z" stroke="white" stroke-width="1.5" stroke-linecap="round" stroke-linejoin="round"/>
<path d="M4.96387 16.446C4.96387 16.446 7.64244 16.93 10.321 15M11.9282 4V4.1M9.24958 7.25C9.24958 7.58152 9.10848 7.89946 8.85731 8.13388C8.60615 8.3683 8.2655 8.5 7.9103 8.5C7.5551 8.5 7.21444 8.3683 6.96328 8.13388C6.71211 7.89946 6.57101 7.58152 6.57101 7.25C6.57101 6.91848 6.71211 6.60054 6.96328 6.36612C7.21444 6.1317 7.5551 6 7.9103 6C8.2655 6 8.60615 6.1317 8.85731 6.36612C9.10848 6.60054 9.24958 6.91848 9.24958 7.25Z" stroke="white" stroke-width="1.5" stroke-linecap="round" stroke-linejoin="round"/>
</svg>
