<svg width="25" height="24" viewBox="0 0 25 24" fill="none" xmlns="http://www.w3.org/2000/svg">
<path d="M18.75 18C21 17.751 22.75 15.839 22.75 13.519C22.75 11.029 20.735 9.011 18.25 9.011H18.228C18.242 8.84567 18.2493 8.679 18.25 8.511C18.2508 7.78799 18.1091 7.0719 17.8332 6.40364C17.5572 5.73538 17.1522 5.12802 16.6415 4.61627C16.1308 4.10451 15.5242 3.69837 14.8565 3.42105C14.1888 3.14373 13.473 3.00066 12.75 3C11.3727 3.00116 10.0458 3.51859 9.0313 4.45016C8.01679 5.38173 7.38834 6.65976 7.27 8.032M7.27 8.032C6.03171 8.15279 4.88278 8.73036 4.04715 9.65214C3.21152 10.5739 2.74909 11.7738 2.75 13.018C2.74934 14.1719 3.147 15.2906 3.87579 16.1852C4.60457 17.0798 5.61982 17.6954 6.75 17.928M7.27 8.032C7.428 8.01667 7.588 8.009 7.75 8.009C8.876 8.009 9.915 8.382 10.75 9.011M18.228 9.012C18.1283 10.1152 17.6979 11.1625 16.993 12.017M12.75 13V21M12.75 13C12.05 13 10.742 14.994 10.25 15.5M12.75 13C13.45 13 14.758 14.994 15.25 15.5" stroke="white" stroke-width="1.5" stroke-linecap="round" stroke-linejoin="round"/>
</svg>
