<svg width="20" height="20" viewBox="0 0 20 20" fill="none" xmlns="http://www.w3.org/2000/svg">
<g clip-path="url(#clip0_188_20244)">
<path d="M10.8329 3.33333L16.6663 9.16666M11.6663 18.3333H18.3329M11.7279 3.2375C12.3488 2.565 12.6588 2.22916 12.9888 2.0325C13.3783 1.79932 13.8225 1.67292 14.2764 1.66604C14.7304 1.65917 15.1781 1.77206 15.5746 1.99333C15.9104 2.18 16.2304 2.50666 16.8704 3.16C17.5104 3.81416 17.8304 4.14166 18.0121 4.48416C18.2289 4.892 18.3391 5.34799 18.3325 5.80981C18.326 6.27163 18.2028 6.72431 17.9746 7.12583C17.7829 7.4625 17.4538 7.78 16.7946 8.41416L8.95876 15.9617C7.71043 17.1642 7.08626 17.765 6.30626 18.07C5.52626 18.375 4.66876 18.3517 2.95376 18.3075L2.72043 18.3008C2.19876 18.2875 1.93709 18.2808 1.78626 18.1083C1.63376 17.9358 1.65459 17.67 1.69626 17.1383L1.71876 16.85C1.83543 15.3533 1.89376 14.605 2.18543 13.9317C2.47709 13.2583 2.98209 12.7125 3.99043 11.62L11.7279 3.2375Z" stroke="white" stroke-width="1.5" stroke-linecap="round" stroke-linejoin="round"/>
</g>
<defs>
<clipPath id="clip0_188_20244">
<rect width="20" height="20" fill="white"/>
</clipPath>
</defs>
</svg>
