<svg width="25" height="24" viewBox="0 0 25 24" fill="none" xmlns="http://www.w3.org/2000/svg">
<path d="M9.48848 7.78L5.59748 11.757C4.42748 12.953 3.84248 13.551 3.76348 14.28C3.74681 14.4347 3.74681 14.5893 3.76348 14.744C3.84348 15.474 4.42748 16.071 5.59748 17.267L5.74648 17.419C6.37048 18.058 6.68348 18.377 7.05648 18.591C7.27514 18.7163 7.50481 18.8133 7.74548 18.882C8.15848 19 8.60148 19 9.48848 19C10.3745 19 10.8185 19 11.2315 18.882C11.4721 18.8127 11.7015 18.716 11.9195 18.592C12.2935 18.377 12.6055 18.058 13.2295 17.419L16.0745 14.512M9.48848 7.78L13.0705 4.123C14.4565 2.708 15.1505 2 16.0135 2C16.8765 2 17.5695 2.708 18.9545 4.125L19.6975 4.885C21.0665 6.283 21.7505 6.983 21.7505 7.85C21.7505 8.717 21.0655 9.416 19.6965 10.814L16.0745 14.512M9.48848 7.78L16.0745 14.512M10.7505 22H21.7505" stroke="white" stroke-width="1.5" stroke-linecap="round" stroke-linejoin="round"/>
</svg>
