<svg width="25" height="24" viewBox="0 0 25 24" fill="none" xmlns="http://www.w3.org/2000/svg">
<path d="M11.82 21H10.757C6.747 21 4.742 21 3.496 19.454C2.25 17.908 2.25 15.42 2.25 10.444V7.22C2.25 5.303 2.25 4.344 2.574 3.625C2.7851 3.13569 3.12522 2.71295 3.558 2.402C4.138 2 4.911 2 6.456 2C7.446 2 7.941 2 8.374 2.202C9.364 2.662 9.772 3.777 10.218 4.885L10.757 6.222M7.254 6.222H15.799C17.591 6.222 18.487 6.222 19.131 6.756C19.409 6.986 19.649 7.284 19.835 7.63C20.125 8.168 20.219 8.849 20.25 9.917" stroke="white" stroke-width="1.5" stroke-linecap="round" stroke-linejoin="round"/>
<path d="M4.84597 12.576C5.27597 11.426 5.49297 10.852 5.91297 10.491C6.59297 9.909 7.56997 10.006 8.40697 10.006H17.502C19.979 10.006 21.218 10.006 21.836 10.803C22.896 12.171 21.645 14.39 21.141 15.733C20.237 18.141 19.785 19.345 18.885 20.079C17.514 21.198 15.519 20.983 13.864 20.983H10.187C6.64397 20.983 4.87297 20.983 3.95097 19.887C2.25097 17.862 4.08097 14.613 4.84597 12.575" stroke="white" stroke-width="1.5" stroke-linecap="round" stroke-linejoin="round"/>
</svg>
