<svg width="24" height="24" viewBox="0 0 24 24" fill="none" xmlns="http://www.w3.org/2000/svg">
<path d="M8.99973 22.0001L8.74873 18.4911C8.71641 18.0444 8.77648 17.5959 8.92519 17.1735C9.0739 16.7512 9.30806 16.364 9.61306 16.0361C9.91806 15.7082 10.2874 15.4467 10.6979 15.2679C11.1084 15.0891 11.5514 14.9968 11.9992 14.9968C12.447 14.9968 12.89 15.0891 13.3006 15.2679C13.7111 15.4467 14.0804 15.7082 14.3854 16.0361C14.6904 16.364 14.9246 16.7512 15.0733 17.1735C15.222 17.5959 15.2821 18.0444 15.2497 18.4911L14.9997 22.0001" stroke="white" stroke-width="1.5" stroke-linecap="round" stroke-linejoin="round"/>
<path d="M2.35204 13.214C1.99804 10.916 1.82204 9.768 2.25604 8.749C2.69004 7.73 3.65404 7.034 5.58104 5.641L7.02104 4.6C9.41804 2.867 10.617 2 12.001 2C13.383 2 14.581 2.867 16.979 4.6L18.419 5.641C20.346 7.034 21.309 7.731 21.744 8.749C22.178 9.768 22.002 10.916 21.649 13.213L21.348 15.173C20.848 18.429 20.597 20.057 19.429 21.029C18.261 22.001 16.554 22 13.14 22H10.86C7.44504 22 5.73804 22 4.57004 21.029C3.40204 20.057 3.15204 18.429 2.65204 15.172L2.35204 13.214Z" stroke="white" stroke-width="1.5" stroke-linecap="round" stroke-linejoin="round"/>
</svg>
