<svg width="32" height="32" viewBox="0 0 32 32" fill="none" xmlns="http://www.w3.org/2000/svg">
<path d="M2.66699 10.6667C2.66699 10.6667 8.63633 4 16.0003 4C23.3643 4 29.3337 10.6667 29.3337 10.6667" stroke="white" stroke-width="2" stroke-linecap="round" stroke-linejoin="round"/>
<path d="M28.7257 17.3933C29.131 17.9613 29.3337 18.2467 29.3337 18.6667C29.3337 19.088 29.131 19.372 28.7257 19.94C26.9043 22.4947 22.2523 28 16.0003 28C9.74699 28 5.09633 22.4933 3.27499 19.94C2.86966 19.372 2.66699 19.0867 2.66699 18.6667C2.66699 18.2453 2.86966 17.9613 3.27499 17.3933C5.09633 14.8387 9.74833 9.33334 16.0003 9.33334C22.2537 9.33334 26.9043 14.84 28.7257 17.3933Z" stroke="white" stroke-width="2" stroke-linecap="round" stroke-linejoin="round"/>
<path d="M20 18.6667C20 17.6058 19.5786 16.5884 18.8284 15.8382C18.0783 15.0881 17.0609 14.6667 16 14.6667C14.9391 14.6667 13.9217 15.0881 13.1716 15.8382C12.4214 16.5884 12 17.6058 12 18.6667C12 19.7275 12.4214 20.745 13.1716 21.4951C13.9217 22.2452 14.9391 22.6667 16 22.6667C17.0609 22.6667 18.0783 22.2452 18.8284 21.4951C19.5786 20.745 20 19.7275 20 18.6667Z" stroke="white" stroke-width="2" stroke-linecap="round" stroke-linejoin="round"/>
</svg>
