<svg width="25" height="24" viewBox="0 0 25 24" fill="none" xmlns="http://www.w3.org/2000/svg">
<path d="M2.5 7C2.5 5.6 2.5 4.9 2.772 4.365C3.01173 3.89435 3.39435 3.51173 3.865 3.272C4.4 3 5.1 3 6.5 3C7.9 3 8.6 3 9.135 3.272C9.60565 3.51173 9.98827 3.89435 10.228 4.365C10.5 4.9 10.5 5.6 10.5 7M2.5 7V17C2.5 18.4 2.5 19.1 2.772 19.635C3.0119 20.1053 3.39451 20.4875 3.865 20.727C4.4 21 5.1 21 6.5 21C7.9 21 8.6 21 9.135 20.727C9.60549 20.4875 9.9881 20.1053 10.228 19.635C10.5 19.1 10.5 18.4 10.5 17V7M2.5 7H10.5M6.5 17H6.509M18.281 16.695L18.29 16.693M12.5 8L19 6M11.949 8.268C11.594 6.938 11.416 6.273 11.539 5.696C11.646 5.18862 11.9106 4.72802 12.295 4.38C12.732 3.985 13.395 3.807 14.719 3.45C16.043 3.094 16.706 2.916 17.28 3.039C17.7862 3.14697 18.245 3.41313 18.59 3.799C18.984 4.237 19.162 4.902 19.517 6.232L22.051 15.732C22.406 17.062 22.584 17.727 22.461 18.304C22.354 18.8114 22.0894 19.272 21.705 19.62C21.268 20.015 20.605 20.193 19.281 20.55C17.957 20.906 17.295 21.084 16.72 20.961C16.214 20.8524 15.7554 20.5863 15.41 20.201C15.016 19.763 14.838 19.098 14.483 17.768L11.949 8.268Z" stroke="white" stroke-width="1.5" stroke-linecap="round" stroke-linejoin="round"/>
</svg>
