<svg width="25" height="24" viewBox="0 0 25 24" fill="none" xmlns="http://www.w3.org/2000/svg">
<path d="M7.5 15.002L7.509 15M22.5 12C22.5 6.477 18.023 2 12.5 2C6.977 2 2.5 6.477 2.5 12C2.5 17.523 6.977 22 12.5 22C13.342 22 14.5 22.116 14.5 21C14.5 20.391 14.183 19.921 13.869 19.454C13.409 18.771 12.952 18.095 13.5 17C14.167 15.667 15.278 15.667 16.982 15.667C17.833 15.667 18.833 15.667 20 15.5C22.101 15.2 22.5 13.908 22.5 12Z" stroke="white" stroke-width="1.5" stroke-linecap="round" stroke-linejoin="round"/>
<path d="M10 10C10.8284 10 11.5 9.32843 11.5 8.5C11.5 7.67157 10.8284 7 10 7C9.17157 7 8.5 7.67157 8.5 8.5C8.5 9.32843 9.17157 10 10 10Z" stroke="white" stroke-width="1.5" stroke-linecap="round" stroke-linejoin="round"/>
<path d="M17 11C17.8284 11 18.5 10.3284 18.5 9.5C18.5 8.67157 17.8284 8 17 8C16.1716 8 15.5 8.67157 15.5 9.5C15.5 10.3284 16.1716 11 17 11Z" stroke="white" stroke-width="1.5" stroke-linecap="round" stroke-linejoin="round"/>
</svg>
