<svg width="33" height="32" viewBox="0 0 33 32" fill="none" xmlns="http://www.w3.org/2000/svg">
<path d="M29.8337 26.5227H27.6763C26.4417 26.5227 25.151 27.488 24.0857 27.9973C22.1163 28.94 18.2643 30.2307 16.4497 28.428C13.5897 25.5853 13.0657 21.6107 13.167 19.3333H5.50033C5.19391 19.3333 4.89049 19.273 4.6074 19.1557C4.3243 19.0384 4.06708 18.8666 3.85041 18.6499C3.63374 18.4332 3.46187 18.176 3.34461 17.8929C3.22735 17.6098 3.16699 17.3064 3.16699 17C3.16699 16.6936 3.22735 16.3902 3.34461 16.1071C3.46187 15.824 3.63374 15.5667 3.85041 15.3501C4.06708 15.1334 4.3243 14.9615 4.6074 14.8443C4.89049 14.727 5.19391 14.6667 5.50033 14.6667H13.8337M13.8337 14.6667H19.167M13.8337 14.6667C13.8577 14.6347 16.7337 10.8293 18.6457 10.1653C20.3563 9.57066 21.879 10.7093 23.2883 11.5653C24.3817 12.2293 27.075 14.6667 28.507 14.6667H29.8337M3.16699 5.99999H11.167M3.16699 5.99999C3.16699 5.06666 5.82566 3.32266 6.50033 2.66666M3.16699 5.99999C3.16699 6.93332 5.82566 8.67732 6.50033 9.33332" stroke="white" stroke-width="2" stroke-linecap="round" stroke-linejoin="round"/>
</svg>
