<svg width="33" height="32" viewBox="0 0 33 32" fill="none" xmlns="http://www.w3.org/2000/svg">
<path d="M28.5 19L27.392 18.1213C26.1307 17.1213 25.5 16.6213 25.5 16C25.5 15.3787 26.1307 14.8787 27.392 13.8787L28.5 13M4.5 13L5.608 13.8787C6.86933 14.8787 7.5 15.3787 7.5 16C7.5 16.6213 6.86933 17.1213 5.608 18.1213L4.5 19M19.9293 28L20.1373 26.588C20.3747 24.9813 20.4933 24.1787 21.036 23.8653C21.5787 23.5507 22.332 23.8507 23.8413 24.448L25.1667 24.9733M13.0707 4L12.8627 5.412C12.6253 7.01867 12.5067 7.82133 11.964 8.13467C11.4213 8.44933 10.668 8.14933 9.15867 7.552L7.83333 7.02667M7.16667 24.976L8.59333 24.4493C10.2173 23.852 11.0293 23.5533 11.6133 23.8653C12.1973 24.1773 12.324 24.9827 12.5787 26.588L12.8027 28M25.8333 7.024L24.4067 7.54933C22.7827 8.14933 21.9693 8.44667 21.3867 8.13467C20.804 7.82267 20.676 7.01733 20.4213 5.412L20.1973 4M25.8333 16H7.16667M21.1667 24L11.8333 8M21.1667 8L11.8333 24" stroke="white" stroke-width="2" stroke-linecap="round" stroke-linejoin="round"/>
</svg>
