<svg width="22" height="22" viewBox="0 0 22 22" fill="none" xmlns="http://www.w3.org/2000/svg">
<path d="M19 17V5M5 19H17M17 3H5M3 5V17M6.999 9C6.705 7.431 7.734 7.06 10.956 7M10.956 7C13.953 7.067 15.189 7.305 14.914 9M10.956 7V15M9.472 15H12.441M20 1H18C17.7348 1 17.4804 1.10536 17.2929 1.29289C17.1054 1.48043 17 1.73478 17 2V4C17 4.26522 17.1054 4.51957 17.2929 4.70711C17.4804 4.89464 17.7348 5 18 5H20C20.2652 5 20.5196 4.89464 20.7071 4.70711C20.8946 4.51957 21 4.26522 21 4V2C21 1.73478 20.8946 1.48043 20.7071 1.29289C20.5196 1.10536 20.2652 1 20 1ZM4 1H2C1.73478 1 1.48043 1.10536 1.29289 1.29289C1.10536 1.48043 1 1.73478 1 2V4C1 4.26522 1.10536 4.51957 1.29289 4.70711C1.48043 4.89464 1.73478 5 2 5H4C4.26522 5 4.51957 4.89464 4.70711 4.70711C4.89464 4.51957 5 4.26522 5 4V2C5 1.73478 4.89464 1.48043 4.70711 1.29289C4.51957 1.10536 4.26522 1 4 1ZM20 17H18C17.7348 17 17.4804 17.1054 17.2929 17.2929C17.1054 17.4804 17 17.7348 17 18V20C17 20.2652 17.1054 20.5196 17.2929 20.7071C17.4804 20.8946 17.7348 21 18 21H20C20.2652 21 20.5196 20.8946 20.7071 20.7071C20.8946 20.5196 21 20.2652 21 20V18C21 17.7348 20.8946 17.4804 20.7071 17.2929C20.5196 17.1054 20.2652 17 20 17ZM4 17H2C1.73478 17 1.48043 17.1054 1.29289 17.2929C1.10536 17.4804 1 17.7348 1 18V20C1 20.2652 1.10536 20.5196 1.29289 20.7071C1.48043 20.8946 1.73478 21 2 21H4C4.26522 21 4.51957 20.8946 4.70711 20.7071C4.89464 20.5196 5 20.2652 5 20V18C5 17.7348 4.89464 17.4804 4.70711 17.2929C4.51957 17.1054 4.26522 17 4 17Z" stroke="white" stroke-width="1.5" stroke-linecap="round" stroke-linejoin="round"/>
</svg>
